<mxfile host="65bd71144e">
    <diagram id="3hsp_ZQ_9zkSZurb0hla" name="第1頁">
        <mxGraphModel dx="1143" dy="802" grid="1" gridSize="10" guides="1" tooltips="1" connect="1" arrows="1" fold="1" page="1" pageScale="1" pageWidth="800" pageHeight="600" background="#ffffff" math="0" shadow="0">
            <root>
                <mxCell id="0"/>
                <mxCell id="1" parent="0"/>
                <mxCell id="19" style="edgeStyle=none;html=1;exitX=1;exitY=0.5;exitDx=0;exitDy=0;entryX=0;entryY=0.146;entryDx=0;entryDy=0;entryPerimeter=0;strokeWidth=5;fontSize=16;" edge="1" parent="1" source="2" target="3">
                    <mxGeometry relative="1" as="geometry"/>
                </mxCell>
                <mxCell id="2" value="&lt;font style=&quot;font-size: 16px;&quot;&gt;OpenAI Codex&lt;br&gt;模型&lt;/font&gt;" style="rounded=0;whiteSpace=wrap;html=1;strokeWidth=4;" parent="1" vertex="1">
                    <mxGeometry x="70" y="64" width="120" height="60" as="geometry"/>
                </mxCell>
                <mxCell id="3" value="&lt;font style=&quot;font-size: 16px;&quot;&gt;GitHub Copilot&lt;br&gt;服務&lt;/font&gt;" style="rounded=0;whiteSpace=wrap;html=1;strokeWidth=4;" vertex="1" parent="1">
                    <mxGeometry x="300" y="64" width="120" height="206" as="geometry"/>
                </mxCell>
                <mxCell id="7" style="edgeStyle=none;html=1;entryX=0.5;entryY=1;entryDx=0;entryDy=0;fontSize=16;strokeWidth=5;" edge="1" parent="1" source="5" target="2">
                    <mxGeometry relative="1" as="geometry"/>
                </mxCell>
                <mxCell id="5" value="開源程式碼" style="shape=image;verticalLabelPosition=bottom;labelBackgroundColor=default;verticalAlign=top;aspect=fixed;imageAspect=0;image=data:image/svg+xml,PHN2ZyB4bWxucz0iaHR0cDovL3d3dy53My5vcmcvMjAwMC9zdmciIHdpZHRoPSIxZW0iIGhlaWdodD0iMWVtIiB2aWV3Qm94PSIwIDAgMTYgMTYiPjxwYXRoIGZpbGw9IiMwMDAwMDAiIGQ9Ik0wIDIuNzVDMCAxLjc4NC43ODQgMSAxLjc1IDFINWMuNTUgMCAxLjA3LjI2IDEuNC43bC45IDEuMmEuMjUuMjUgMCAwIDAgLjIuMWg2Ljc1Yy45NjYgMCAxLjc1Ljc4NCAxLjc1IDEuNzV2OC41QTEuNzUgMS43NSAwIDAgMSAxNC4yNSAxNUgxLjc1QTEuNzUgMS43NSAwIDAgMSAwIDEzLjI1Wm0xLjc1LS4yNWEuMjUuMjUgMCAwIDAtLjI1LjI1djEwLjVjMCAuMTM4LjExMi4yNS4yNS4yNWgxMi41YS4yNS4yNSAwIDAgMCAuMjUtLjI1di04LjVhLjI1LjI1IDAgMCAwLS4yNS0uMjVINy41Yy0uNTUgMC0xLjA3LS4yNi0xLjQtLjdsLS45LTEuMmEuMjUuMjUgMCAwIDAtLjItLjFaIi8+PC9zdmc+;fontSize=16;strokeWidth=4;" vertex="1" parent="1">
                    <mxGeometry x="98.5" y="214" width="63" height="63" as="geometry"/>
                </mxCell>
                <mxCell id="10" value="&lt;span style=&quot;color: rgb(0, 0, 0); font-family: Helvetica; font-size: 16px; font-style: normal; font-variant-ligatures: normal; font-variant-caps: normal; font-weight: 400; letter-spacing: normal; orphans: 2; text-align: center; text-indent: 0px; text-transform: none; widows: 2; word-spacing: 0px; -webkit-text-stroke-width: 0px; text-decoration-thickness: initial; text-decoration-style: initial; text-decoration-color: initial; float: none; display: inline !important;&quot;&gt;訓練素材&lt;/span&gt;" style="text;whiteSpace=wrap;html=1;fontSize=16;" vertex="1" parent="1">
                    <mxGeometry x="150" y="160" width="110" height="40" as="geometry"/>
                </mxCell>
                <mxCell id="11" value="&lt;span style=&quot;font-size: 16px;&quot;&gt;編輯器&lt;/span&gt;" style="rounded=0;whiteSpace=wrap;html=1;strokeWidth=4;" vertex="1" parent="1">
                    <mxGeometry x="640" y="64" width="120" height="206" as="geometry"/>
                </mxCell>
                <mxCell id="13" style="edgeStyle=none;html=1;entryX=1;entryY=0.5;entryDx=0;entryDy=0;strokeWidth=5;fontSize=16;dashed=1;" edge="1" parent="1">
                    <mxGeometry relative="1" as="geometry">
                        <mxPoint x="630" y="93.5" as="sourcePoint"/>
                        <mxPoint x="430" y="93.5" as="targetPoint"/>
                    </mxGeometry>
                </mxCell>
                <mxCell id="14" value="&lt;div style=&quot;&quot;&gt;提供編輯器情境&lt;/div&gt;" style="text;whiteSpace=wrap;html=1;fontSize=16;align=center;" vertex="1" parent="1">
                    <mxGeometry x="470" y="50" width="130" height="40" as="geometry"/>
                </mxCell>
                <mxCell id="15" style="edgeStyle=none;html=1;entryX=1;entryY=0.5;entryDx=0;entryDy=0;strokeWidth=5;fontSize=16;dashed=1;" edge="1" parent="1">
                    <mxGeometry relative="1" as="geometry">
                        <mxPoint x="430" y="167.5" as="sourcePoint"/>
                        <mxPoint x="630" y="167.5" as="targetPoint"/>
                    </mxGeometry>
                </mxCell>
                <mxCell id="16" value="&lt;div style=&quot;&quot;&gt;提供建議&lt;/div&gt;" style="text;whiteSpace=wrap;html=1;fontSize=16;align=center;" vertex="1" parent="1">
                    <mxGeometry x="470" y="124" width="130" height="40" as="geometry"/>
                </mxCell>
                <mxCell id="17" style="edgeStyle=none;html=1;entryX=1;entryY=0.5;entryDx=0;entryDy=0;strokeWidth=5;fontSize=16;dashed=1;" edge="1" parent="1">
                    <mxGeometry relative="1" as="geometry">
                        <mxPoint x="630" y="233.5" as="sourcePoint"/>
                        <mxPoint x="430" y="233.5" as="targetPoint"/>
                    </mxGeometry>
                </mxCell>
                <mxCell id="18" value="&lt;div style=&quot;&quot;&gt;改進建議&lt;/div&gt;" style="text;whiteSpace=wrap;html=1;fontSize=16;align=center;" vertex="1" parent="1">
                    <mxGeometry x="470" y="190" width="130" height="40" as="geometry"/>
                </mxCell>
            </root>
        </mxGraphModel>
    </diagram>
</mxfile>